<svg width="1200" height="200" viewBox="0 0 1200 200" fill="none" xmlns="http://www.w3.org/2000/svg">
  <path d="M0 80C50 30 100 120 150 120C200 120 250 30 300 30C350 30 400 120 450 120C500 120 550 30 600 30C650 30 700 120 750 120C800 120 850 30 900 30C950 30 1000 120 1050 120C1100 120 1150 30 1200 30V200H0V80Z" fill="#E0F2F1"/>
  <path d="M0 120C50 70 100 160 150 160C200 160 250 70 300 70C350 70 400 160 450 160C500 160 550 70 600 70C650 70 700 160 750 160C800 160 850 70 900 70C950 70 1000 160 1050 160C1100 160 1150 70 1200 70V200H0V120Z" fill="#B2DFDB" fill-opacity="0.6"/>
  <path d="M0 160C50 110 100 200 150 200C200 200 250 110 300 110C350 110 400 200 450 200C500 200 550 110 600 110C650 110 700 200 750 200C800 200 850 110 900 110C950 110 1000 200 1050 200C1100 200 1150 110 1200 110V200H0V160Z" fill="#4DB6AC" fill-opacity="0.4"/>
</svg>