<svg width="300" height="300" viewBox="0 0 300 300" fill="none" xmlns="http://www.w3.org/2000/svg">
  <circle cx="150" cy="150" r="150" fill="#E3F2FD"/>
  <path d="M165 170C165 177.732 158.732 184 151 184C143.268 184 137 177.732 137 170C137 162.268 143.268 156 151 156C158.732 156 165 162.268 165 170Z" fill="#90CAF9"/>
  <path d="M151 156V140C151 136.686 153.686 134 157 134H185C187.209 134 189 135.791 189 138V166C189 168.209 187.209 170 185 170H165" fill="#BBDEFB"/>
  <path d="M178 134H164V120C164 115.582 167.582 112 172 112H178V134Z" fill="#90CAF9"/>
  <path fill-rule="evenodd" clip-rule="evenodd" d="M200 220H100V240C100 251.046 108.954 260 120 260H180C191.046 260 200 251.046 200 240V220Z" fill="#1976D2"/>
  <path d="M100 202C100 185.431 113.431 172 130 172H170C186.569 172 200 185.431 200 202V220H100V202Z" fill="#2196F3"/>
  <path d="M115 200H125V220H115V200Z" fill="#1976D2"/>
  <path d="M175 200H185V220H175V200Z" fill="#1976D2"/>
  <path d="M140 240H160V260H140V240Z" fill="#BBDEFB"/>
  <path d="M135 190H142V200H135V190Z" fill="white"/>
  <path d="M158 190H165V200H158V190Z" fill="white"/>
  <path d="M150 200C145 200 140 195 140 190H160C160 195 155 200 150 200Z" fill="white"/>
  <circle cx="140" cy="182" r="2" fill="#424242"/>
  <circle cx="160" cy="182" r="2" fill="#424242"/>
  <path d="M172 150C175.866 150 179 146.866 179 143C179 139.134 175.866 136 172 136C168.134 136 165 139.134 165 143C165 146.866 168.134 150 172 150Z" fill="white"/>
  <path d="M172 148C174.761 148 177 145.761 177 143C177 140.239 174.761 138 172 138C169.239 138 167 140.239 167 143C167 145.761 169.239 148 172 148Z" fill="#0D47A1"/>
  <circle cx="172" cy="142" r="2" fill="white"/>
  <path d="M151 148C149 148 147 150 147 152V154H155V152C155 150 153 148 151 148Z" fill="#FFCCBC"/>
  <rect x="117" y="220" width="66" height="25" fill="#BBDEFB"/>
  <rect x="125" y="220" width="50" height="5" fill="white"/>
</svg>