<svg width="1200" height="600" viewBox="0 0 1200 600" fill="none" xmlns="http://www.w3.org/2000/svg">
  <rect width="1200" height="600" fill="white"/>
  <g opacity="0.4">
    <path d="M100 200C155.228 200 200 155.228 200 100C200 44.7715 155.228 0 100 0C44.7715 0 0 44.7715 0 100C0 155.228 44.7715 200 100 200Z" fill="#E0F2F1"/>
    <path d="M400 200C455.228 200 500 155.228 500 100C500 44.7715 455.228 0 400 0C344.772 0 300 44.7715 300 100C300 155.228 344.772 200 400 200Z" fill="#B2DFDB"/>
    <path d="M700 200C755.228 200 800 155.228 800 100C800 44.7715 755.228 0 700 0C644.772 0 600 44.7715 600 100C600 155.228 644.772 200 700 200Z" fill="#E0F2F1"/>
    <path d="M1000 200C1055.23 200 1100 155.228 1100 100C1100 44.7715 1055.23 0 1000 0C944.772 0 900 44.7715 900 100C900 155.228 944.772 200 1000 200Z" fill="#B2DFDB"/>
    
    <path d="M250 400C305.228 400 350 355.228 350 300C350 244.772 305.228 200 250 200C194.772 200 150 244.772 150 300C150 355.228 194.772 400 250 400Z" fill="#4DB6AC" opacity="0.5"/>
    <path d="M550 400C605.228 400 650 355.228 650 300C650 244.772 605.228 200 550 200C494.772 200 450 244.772 450 300C450 355.228 494.772 400 550 400Z" fill="#E0F2F1"/>
    <path d="M850 400C905.228 400 950 355.228 950 300C950 244.772 905.228 200 850 200C794.772 200 750 244.772 750 300C750 355.228 794.772 400 850 400Z" fill="#4DB6AC" opacity="0.5"/>
    <path d="M1150 400C1205.23 400 1250 355.228 1250 300C1250 244.772 1205.23 200 1150 200C1094.77 200 1050 244.772 1050 300C1050 355.228 1094.77 400 1150 400Z" fill="#E0F2F1"/>
    
    <path d="M100 600C155.228 600 200 555.228 200 500C200 444.772 155.228 400 100 400C44.7715 400 0 444.772 0 500C0 555.228 44.7715 600 100 600Z" fill="#B2DFDB"/>
    <path d="M400 600C455.228 600 500 555.228 500 500C500 444.772 455.228 400 400 400C344.772 400 300 444.772 300 500C300 555.228 344.772 600 400 600Z" fill="#E0F2F1"/>
    <path d="M700 600C755.228 600 800 555.228 800 500C800 444.772 755.228 400 700 400C644.772 400 600 444.772 600 500C600 555.228 644.772 600 700 600Z" fill="#B2DFDB"/>
    <path d="M1000 600C1055.23 600 1100 555.228 1100 500C1100 444.772 1055.23 400 1000 400C944.772 400 900 444.772 900 500C900 555.228 944.772 600 1000 600Z" fill="#E0F2F1"/>
  </g>
</svg>