<svg width="500" height="500" viewBox="0 0 500 500" fill="none" xmlns="http://www.w3.org/2000/svg">
  <rect width="500" height="500" fill="#F5FDFD"/>
  <g opacity="0.3">
    <circle cx="50" cy="50" r="15" fill="#4DB6AC"/>
    <circle cx="150" cy="50" r="10" fill="#80CBC4"/>
    <circle cx="250" cy="50" r="15" fill="#4DB6AC"/>
    <circle cx="350" cy="50" r="10" fill="#80CBC4"/>
    <circle cx="450" cy="50" r="15" fill="#4DB6AC"/>
    
    <circle cx="50" cy="150" r="10" fill="#80CBC4"/>
    <circle cx="150" cy="150" r="15" fill="#4DB6AC"/>
    <circle cx="250" cy="150" r="10" fill="#80CBC4"/>
    <circle cx="350" cy="150" r="15" fill="#4DB6AC"/>
    <circle cx="450" cy="150" r="10" fill="#80CBC4"/>
    
    <circle cx="50" cy="250" r="15" fill="#4DB6AC"/>
    <circle cx="150" cy="250" r="10" fill="#80CBC4"/>
    <circle cx="250" cy="250" r="15" fill="#4DB6AC"/>
    <circle cx="350" cy="250" r="10" fill="#80CBC4"/>
    <circle cx="450" cy="250" r="15" fill="#4DB6AC"/>
    
    <circle cx="50" cy="350" r="10" fill="#80CBC4"/>
    <circle cx="150" cy="350" r="15" fill="#4DB6AC"/>
    <circle cx="250" cy="350" r="10" fill="#80CBC4"/>
    <circle cx="350" cy="350" r="15" fill="#4DB6AC"/>
    <circle cx="450" cy="350" r="10" fill="#80CBC4"/>
    
    <circle cx="50" cy="450" r="15" fill="#4DB6AC"/>
    <circle cx="150" cy="450" r="10" fill="#80CBC4"/>
    <circle cx="250" cy="450" r="15" fill="#4DB6AC"/>
    <circle cx="350" cy="450" r="10" fill="#80CBC4"/>
    <circle cx="450" cy="450" r="15" fill="#4DB6AC"/>
  </g>
</svg>