<svg width="200" height="200" viewBox="0 0 200 200" fill="none" xmlns="http://www.w3.org/2000/svg">
  <circle cx="100" cy="100" r="90" fill="#E0F2F1"/>
  <circle cx="100" cy="100" r="70" fill="#4DB6AC"/>
  <circle cx="100" cy="100" r="50" fill="white"/>
  <path d="M130 85C130 101.569 116.569 115 100 115C83.4315 115 70 101.569 70 85C70 68.4315 83.4315 55 100 55C116.569 55 130 68.4315 130 85Z" fill="#B2DFDB"/>
  <path d="M125 85C125 98.8071 113.807 110 100 110C86.1929 110 75 98.8071 75 85C75 71.1929 86.1929 60 100 60C113.807 60 125 71.1929 125 85Z" fill="#4DB6AC"/>
  <path d="M120 85C120 96.0457 110.946 105 100 105C89.0543 105 80 96.0457 80 85C80 73.9543 89.0543 65 100 65C110.946 65 120 73.9543 120 85Z" fill="#00897B"/>
  <circle cx="95" cy="80" r="5" fill="white" fill-opacity="0.5"/>
  <path d="M100 132.5C125 132.5 145 140 145 150V155H55V150C55 140 75 132.5 100 132.5Z" fill="#80CBC4"/>
  <path d="M120 155H80V165C80 170.523 84.4772 175 90 175H110C115.523 175 120 170.523 120 165V155Z" fill="#26A69A"/>
</svg>